<svg width="200" height="200" viewBox="0 0 200 200" fill="none" xmlns="http://www.w3.org/2000/svg">
    <g clip-path="url(#clip0_2_20)">
        <path d="M58.4286 30.8571C58.4286 43.8038 49.56 54.6123 37.6429 57.7254L37.6429 93.5357C37.6429 101.217 43.8578 107.464 51.5 107.464L93.0714 107.464L93.0714 57.7254C81.1543 54.6123 72.2857 43.8038 72.2857 30.8571C72.2857 15.4939 84.7156 3 100 3C115.284 3 127.714 15.4939 127.714 30.8571C127.714 43.8037 118.846 54.6123 106.929 57.7254L106.929 107.464L148.5 107.464C163.784 107.464 176.214 119.958 176.214 135.321L176.214 143.275C188.131 146.388 197 157.196 197 170.143C197 185.506 184.57 198 169.286 198C154.001 198 141.571 185.506 141.571 170.143C141.571 157.196 150.44 146.388 162.357 143.275L162.357 135.321C162.357 127.64 156.142 121.393 148.5 121.393L51.5 121.393C36.2156 121.393 23.7857 108.899 23.7857 93.5357L23.7857 57.7254C11.8686 54.6123 3 43.8038 3 30.8571C3 15.4939 15.4299 3 30.7143 3C45.9987 3 58.4286 15.4939 58.4286 30.8571ZM113.857 30.8571C113.857 23.1755 107.642 16.9286 100 16.9286C92.3578 16.9286 86.1429 23.1755 86.1429 30.8571C86.1429 38.5388 92.3578 44.7857 100 44.7857C107.642 44.7857 113.857 38.5388 113.857 30.8571ZM155.429 170.143C155.429 177.824 161.644 184.071 169.286 184.071C176.928 184.071 183.143 177.824 183.143 170.143C183.143 162.461 176.928 156.214 169.286 156.214C161.643 156.214 155.429 162.461 155.429 170.143ZM16.8571 30.8571C16.8571 38.5388 23.0721 44.7857 30.7143 44.7857C38.3565 44.7857 44.5714 38.5388 44.5714 30.8571C44.5714 23.1755 38.3565 16.9286 30.7143 16.9286C23.0721 16.9286 16.8571 23.1755 16.8571 30.8571Z"
              fill="white"/>
    </g>
    <defs>
        <clipPath id="clip0_2_20">
            <rect width="195" height="194" fill="white" transform="matrix(-4.37114e-08 -1 -1 4.37114e-08 197 198)"/>
        </clipPath>
    </defs>
</svg>
