<svg fill="none" height="200" viewBox="0 0 200 200" width="200" xmlns="http://www.w3.org/2000/svg"
>
    <linearGradient id="a" gradientUnits="userSpaceOnUse" x1="-.000001" x2="200" y1="200" y2="-.000001">
        <stop offset="0" stop-color="#3a0909"/>
        <stop offset="1" stop-color="#b31919"/>
    </linearGradient>
    <clipPath id="b">
        <path d="m0 0h104v103h-104z" transform="matrix(-.00000004 -1 -1 .00000004 151 152)"/>
    </clipPath>
    <path clip-rule="evenodd"
          d="m0 100c0-100 .397614-100 100.199-100 99.801 0 99.801 0 99.801 100s0 100-99.801 100c-99.801386 0-100.199 0-100.199-100z"
          fill="url(#a)" fill-rule="evenodd"/>
    <g clip-path="url(#b)">
        <path d="m77.4286 62.8571c0 6.9049-4.7086 12.6695-11.0357 14.3298v19.0988c0 4.0973 3.2996 7.4283 7.3571 7.4283h22.0714v-26.5271c-6.3271-1.6603-11.0357-7.4249-11.0357-14.3298 0-8.1937 6.5994-14.8571 14.7143-14.8571 8.115 0 14.714 6.6634 14.714 14.8571 0 6.9049-4.708 12.6695-11.035 14.3298v26.5271h22.071c8.115 0 14.714 6.664 14.714 14.857v4.242c6.327 1.66 11.036 7.425 11.036 14.33 0 8.194-6.599 14.857-14.714 14.857s-14.715-6.663-14.715-14.857c0-6.905 4.709-12.67 11.036-14.33v-4.242c0-4.096-3.3-7.428-7.357-7.428h-51.5c-8.1149 0-14.7143-6.664-14.7143-14.8573v-19.0988c-6.3271-1.6603-11.0357-7.4249-11.0357-14.3298 0-8.1937 6.5994-14.8571 14.7143-14.8571s14.7143 6.6634 14.7143 14.8571zm29.4284 0c0-4.0968-3.3-7.4285-7.357-7.4285-4.0575 0-7.3571 3.3317-7.3571 7.4285 0 4.0969 3.2996 7.4286 7.3571 7.4286 4.057 0 7.357-3.3317 7.357-7.4286zm22.072 74.2859c0 4.097 3.299 7.428 7.357 7.428 4.057 0 7.357-3.331 7.357-7.428s-3.3-7.429-7.357-7.429c-4.058 0-7.357 3.332-7.357 7.429zm-73.5719-74.2859c0 4.0969 3.2997 7.4286 7.3572 7.4286s7.3571-3.3317 7.3571-7.4286c0-4.0968-3.2996-7.4285-7.3571-7.4285s-7.3572 3.3317-7.3572 7.4285z"
              fill="#fff"/>
    </g>
</svg>