<svg fill="none" height="200" viewBox="0 0 200 200" width="200" xmlns="http://www.w3.org/2000/svg" xmlns:xlink="http://www.w3.org/1999/xlink"><clipPath id="a"><path d="m0 0h135v134h-135z" transform="matrix(-.00000004 -1 -1 .00000004 167 167)"/></clipPath><g clip-path="url(#a)"><path d="m71.2857 51.2857c0 8.963-6.1257 16.4459-14.3571 18.6011v24.7918c0 5.318 4.2928 9.6424 9.5714 9.6424h28.7143v-34.4342c-8.2314-2.1552-14.3572-9.6381-14.3572-18.6011 0-10.6361 8.5856-19.2857 19.1429-19.2857 10.557 0 19.143 8.6496 19.143 19.2857 0 8.963-6.126 16.4459-14.357 18.6011v34.4342h28.714c10.557 0 19.143 8.65 19.143 19.286v5.506c8.231 2.155 14.357 9.638 14.357 18.601 0 10.636-8.586 19.286-19.143 19.286s-19.143-8.65-19.143-19.286c0-8.963 6.126-16.446 14.357-18.601v-5.506c0-5.318-4.292-9.643-9.571-9.643h-67c-10.5573 0-19.1429-8.649-19.1429-19.2854v-24.7918c-8.2314-2.1552-14.3571-9.638-14.3571-18.6011 0-10.6361 8.5856-19.2857 19.1429-19.2857 10.5572 0 19.1428 8.6496 19.1428 19.2857zm38.2853 0c0-5.318-4.292-9.6428-9.571-9.6428-5.2786 0-9.5714 4.3248-9.5714 9.6428s4.2928 9.6429 9.5714 9.6429c5.279 0 9.571-4.3249 9.571-9.6429zm28.715 96.4283c0 5.318 4.293 9.643 9.571 9.643 5.279 0 9.572-4.325 9.572-9.643s-4.293-9.643-9.572-9.643-9.571 4.325-9.571 9.643zm-95.7146-96.4283c0 5.3181 4.2928 9.6429 9.5715 9.6429 5.2786 0 9.5714-4.3248 9.5714-9.6429 0-5.318-4.2928-9.6428-9.5714-9.6428-5.2787 0-9.5715 4.3248-9.5715 9.6428z" fill="#fff"/></g></svg>